<svg width="280" height="52" viewBox="0 0 280 52" fill="none" xmlns="http://www.w3.org/2000/svg">
<path d="M10.9 33.64L3.69 51H0.12L21.19 0.599998H23.15L44.29 51H40.51L33.3 33.64H10.9ZM21.96 6.2C21.9133 6.24666 21.82 6.52666 21.68 7.04C21.0267 9.04666 20.3967 10.75 19.79 12.15L12.09 30.77H32.11L24.41 12.22C22.7767 8.67333 21.96 6.66666 21.96 6.2ZM74.886 48.62H72.996L59.766 16.49C59.206 15.23 58.646 13.76 58.086 12.08C58.086 12.1267 58.0393 12.3833 57.946 12.85C57.8993 13.3167 57.8293 13.9467 57.736 14.74C57.6427 15.4867 57.5493 16.1167 57.456 16.63L52.206 51H49.056L56.476 5.29H58.366L72.506 38.82C73.626 41.62 74.186 43.09 74.186 43.23C74.5127 42.25 75.1427 40.8033 76.076 38.89L91.826 5.29H93.716L100.646 51H97.286L92.316 16.49C91.9894 14.2033 91.826 12.6867 91.826 11.94L89.796 16.56L74.886 48.62ZM112.673 51V5.57H115.893V51H112.673ZM132.703 51V5.29H134.243L164.063 39.59C165.136 40.8033 166.116 42.0167 167.003 43.23C167.936 44.3967 168.426 45.0033 168.473 45.05C168.379 43.93 168.333 41.7367 168.333 38.47V5.57H171.553V51.28H170.013L139.633 16.42L135.783 11.73C135.876 12.6633 135.923 14.8567 135.923 18.31V51H132.703ZM190.587 35.25L184.077 51H180.787L199.827 5.29H201.717L220.897 51H217.327L210.747 35.25H190.587ZM200.597 10.47C199.897 12.57 199.267 14.32 198.707 15.72L191.707 32.52H209.627L202.697 15.79C201.624 13.1767 200.924 11.4033 200.597 10.47ZM277.809 5.36C274.403 3.91333 271.019 3.19 267.659 3.19C260.846 3.19 257.439 5.71 257.439 10.75C257.439 12.9433 258.209 14.9967 259.749 16.91C261.289 18.7767 263.156 20.4567 265.349 21.95C267.543 23.3967 269.736 24.89 271.929 26.43C274.123 27.97 275.989 29.8133 277.529 31.96C279.069 34.1067 279.839 36.44 279.839 38.96C279.839 43.2067 278.416 46.4267 275.569 48.62C272.723 50.7667 268.779 51.84 263.739 51.84C258.746 51.84 254.476 50.5567 250.929 47.99L252.609 45.47C255.969 47.6633 259.656 48.76 263.669 48.76C267.683 48.76 270.763 47.9667 272.909 46.38C275.056 44.7467 276.129 42.4133 276.129 39.38C276.129 37.28 275.359 35.2967 273.819 33.43C272.279 31.5167 270.413 29.8133 268.219 28.32C266.026 26.78 263.833 25.2167 261.639 23.63C259.446 22.0433 257.579 20.1533 256.039 17.96C254.499 15.7667 253.729 13.41 253.729 10.89C253.729 7.57666 254.943 4.96333 257.369 3.05C259.843 1.09 263.156 0.109996 267.309 0.109996C271.509 0.109996 275.406 0.949996 278.999 2.63L277.809 5.36Z" fill="#D3A663"/>
</svg>
